<svg width="49" height="50" viewBox="0 0 49 50" fill="none" xmlns="http://www.w3.org/2000/svg">
    <rect x="0.5" y="1" width="48" height="48" rx="11.5" stroke="white"/>
    <path fill-rule="evenodd" clip-rule="evenodd"
          d="M18.2378 14.7373C18.3128 14.6621 18.4019 14.6024 18.5 14.5617C18.5981 14.521 18.7033 14.5 18.8095 14.5C18.9158 14.5 19.0209 14.521 19.1191 14.5617C19.2172 14.6024 19.3063 14.6621 19.3813 14.7373L29.0725 24.4284C29.1477 24.5035 29.2074 24.5926 29.2481 24.6907C29.2888 24.7888 29.3098 24.894 29.3098 25.0002C29.3098 25.1064 29.2888 25.2116 29.2481 25.3097C29.2074 25.4079 29.1477 25.497 29.0725 25.572L19.3813 35.2632C19.2297 35.4148 19.024 35.5 18.8095 35.5C18.5951 35.5 18.3894 35.4148 18.2378 35.2632C18.0861 35.1115 18.0009 34.9058 18.0009 34.6914C18.0009 34.4769 18.0861 34.2712 18.2378 34.1196L27.3588 25.0002L18.2378 15.8808C18.1625 15.8058 18.1029 15.7167 18.0622 15.6186C18.0214 15.5205 18.0005 15.4153 18.0005 15.309C18.0005 15.2028 18.0214 15.0976 18.0622 14.9995C18.1029 14.9014 18.1625 14.8123 18.2378 14.7373Z"
          fill="white"/>
</svg>
